<?xml version="1.0" encoding="UTF-8"?>
<svg width="1600" height="900" viewBox="0 0 1600 900" xmlns="http://www.w3.org/2000/svg" preserveAspectRatio="xMidYMid slice">
  <defs>
    <linearGradient id="g1" x1="0" x2="1">
      <stop offset="0%" stop-color="#0b66d1" stop-opacity="0.95" />
      <stop offset="100%" stop-color="#2bb5ff" stop-opacity="0.8" />
    </linearGradient>
  </defs>
  <rect width="1600" height="900" fill="url(#g1)" />
  <g transform="translate(1200,220) scale(1)">
    <rect x="-180" y="-40" width="360" height="420" rx="20" fill="#fff" opacity="0.08" />
  </g>
  <g transform="translate(220,240)">
    <circle cx="140" cy="120" r="80" fill="#fff" opacity="0.12" />
    <rect x="260" y="60" width="420" height="280" rx="22" fill="#fff" opacity="0.06" />
  </g>
  <g transform="translate(380,320)">
    <g transform="translate(-20,0) scale(1)">
      <ellipse cx="120" cy="260" rx="80" ry="40" fill="#ffffff" opacity="0.06" />
      <circle cx="120" cy="120" r="48" fill="#fff" opacity="0.9" />
      <rect x="80" y="170" width="80" height="120" rx="18" fill="#fff" opacity="0.9" />
      <g transform="translate(220,30)">
        <circle cx="80" cy="100" r="46" fill="#ffdcb1" />
        <rect x="50" y="150" width="120" height="140" rx="16" fill="#ffe9d6" />
        <path d="M40 85 C80 60, 140 60, 180 85" stroke="#fff" stroke-width="6" fill="none" opacity="0.2" />
      </g>
    </g>
  </g>
  <text x="80" y="760" font-family="Poppins, sans-serif" font-weight="600" font-size="42" fill="rgba(255,255,255,0.95)">Blue Sky Home Care</text>
  <text x="80" y="805" font-family="Poppins, sans-serif" font-weight="300" font-size="20" fill="rgba(255,255,255,0.9)">Compassionate care at home</text>
</svg>
